<mxfile host="65bd71144e">
    <diagram id="VTrUGa43TiZ-kqlPuP6K" name="Page-1">
        <mxGraphModel dx="1402" dy="1008" grid="1" gridSize="10" guides="1" tooltips="1" connect="1" arrows="1" fold="1" page="1" pageScale="1" pageWidth="850" pageHeight="1100" math="0" shadow="0">
            <root>
                <mxCell id="0"/>
                <mxCell id="1" parent="0"/>
                <mxCell id="n0ra2C8ssVpuhZFvP8Or-20" style="edgeStyle=orthogonalEdgeStyle;rounded=0;orthogonalLoop=1;jettySize=auto;html=1;exitX=0.5;exitY=1;exitDx=0;exitDy=0;entryX=1;entryY=0.5;entryDx=0;entryDy=0;fontSize=14;" parent="1" source="n0ra2C8ssVpuhZFvP8Or-1" target="n0ra2C8ssVpuhZFvP8Or-2" edge="1">
                    <mxGeometry relative="1" as="geometry"/>
                </mxCell>
                <mxCell id="n0ra2C8ssVpuhZFvP8Or-21" style="edgeStyle=orthogonalEdgeStyle;rounded=0;orthogonalLoop=1;jettySize=auto;html=1;exitX=0.5;exitY=1;exitDx=0;exitDy=0;entryX=0;entryY=0.5;entryDx=0;entryDy=0;fontSize=14;" parent="1" source="n0ra2C8ssVpuhZFvP8Or-1" target="n0ra2C8ssVpuhZFvP8Or-9" edge="1">
                    <mxGeometry relative="1" as="geometry"/>
                </mxCell>
                <mxCell id="n0ra2C8ssVpuhZFvP8Or-1" value="&lt;span style=&quot;font-size: 14px&quot;&gt;Document Repository&lt;/span&gt;" style="rounded=1;whiteSpace=wrap;html=1;" parent="1" vertex="1">
                    <mxGeometry x="660" y="180" width="190" height="80" as="geometry"/>
                </mxCell>
                <mxCell id="n0ra2C8ssVpuhZFvP8Or-4" value="Branch" style="edgeStyle=orthogonalEdgeStyle;rounded=0;orthogonalLoop=1;jettySize=auto;html=1;exitX=0.5;exitY=1;exitDx=0;exitDy=0;entryX=0.5;entryY=0;entryDx=0;entryDy=0;fontSize=14;" parent="1" source="n0ra2C8ssVpuhZFvP8Or-2" target="n0ra2C8ssVpuhZFvP8Or-3" edge="1">
                    <mxGeometry relative="1" as="geometry"/>
                </mxCell>
                <mxCell id="n0ra2C8ssVpuhZFvP8Or-2" value="User's DID" style="ellipse;whiteSpace=wrap;html=1;fontSize=14;" parent="1" vertex="1">
                    <mxGeometry x="310" y="280" width="120" height="80" as="geometry"/>
                </mxCell>
                <mxCell id="n0ra2C8ssVpuhZFvP8Or-6" value="File" style="edgeStyle=orthogonalEdgeStyle;rounded=0;orthogonalLoop=1;jettySize=auto;html=1;exitX=0.5;exitY=1;exitDx=0;exitDy=0;entryX=0.5;entryY=0;entryDx=0;entryDy=0;fontSize=14;" parent="1" source="n0ra2C8ssVpuhZFvP8Or-3" target="n0ra2C8ssVpuhZFvP8Or-5" edge="1">
                    <mxGeometry relative="1" as="geometry"/>
                </mxCell>
                <mxCell id="n0ra2C8ssVpuhZFvP8Or-3" value="DID_&amp;lt;companyName&amp;gt;" style="rounded=0;whiteSpace=wrap;html=1;fontSize=14;" parent="1" vertex="1">
                    <mxGeometry x="270" y="480" width="200" height="80" as="geometry"/>
                </mxCell>
                <mxCell id="n0ra2C8ssVpuhZFvP8Or-8" value="Content" style="edgeStyle=orthogonalEdgeStyle;rounded=0;orthogonalLoop=1;jettySize=auto;html=1;exitX=0.5;exitY=1;exitDx=0;exitDy=0;entryX=0.5;entryY=0;entryDx=0;entryDy=0;fontSize=14;" parent="1" source="n0ra2C8ssVpuhZFvP8Or-5" target="n0ra2C8ssVpuhZFvP8Or-7" edge="1">
                    <mxGeometry relative="1" as="geometry"/>
                </mxCell>
                <mxCell id="n0ra2C8ssVpuhZFvP8Or-5" value="&amp;lt;public_key&amp;gt;.did" style="rounded=0;whiteSpace=wrap;html=1;fontSize=14;" parent="1" vertex="1">
                    <mxGeometry x="270" y="680" width="200" height="60" as="geometry"/>
                </mxCell>
                <mxCell id="n0ra2C8ssVpuhZFvP8Or-7" value="&lt;div style=&quot;text-align: left&quot;&gt;&lt;span&gt;- controller: user's public key&lt;/span&gt;&lt;/div&gt;&lt;div style=&quot;text-align: left&quot;&gt;&lt;span&gt;- did: DID of the did doc&lt;/span&gt;&lt;/div&gt;&lt;div style=&quot;text-align: left&quot;&gt;&lt;span&gt;- data:&amp;nbsp;&lt;/span&gt;&lt;/div&gt;&lt;div style=&quot;text-align: left&quot;&gt;&lt;span&gt;&lt;span style=&quot;white-space: pre&quot;&gt;&#9;&lt;/span&gt;+ name&lt;br&gt;&lt;/span&gt;&lt;/div&gt;&lt;div style=&quot;text-align: left&quot;&gt;&lt;span&gt;&lt;span style=&quot;white-space: pre&quot;&gt;&#9;&lt;/span&gt;+ gender&lt;br&gt;&lt;/span&gt;&lt;/div&gt;&lt;div style=&quot;text-align: left&quot;&gt;&lt;span&gt;&lt;span style=&quot;white-space: pre&quot;&gt;&#9;&lt;/span&gt;+ dOB&lt;br&gt;&lt;/span&gt;&lt;/div&gt;&lt;div style=&quot;text-align: left&quot;&gt;&lt;span&gt;&lt;span style=&quot;white-space: pre&quot;&gt;&#9;&lt;/span&gt;+ address&lt;br&gt;&lt;/span&gt;&lt;/div&gt;&lt;div style=&quot;text-align: left&quot;&gt;&lt;span&gt;&lt;span style=&quot;white-space: pre&quot;&gt;&#9;&lt;/span&gt;+ countryName&lt;br&gt;&lt;/span&gt;&lt;/div&gt;&lt;div style=&quot;text-align: left&quot;&gt;&lt;span&gt;&lt;span style=&quot;white-space: pre&quot;&gt;&#9;&lt;/span&gt;+ id Number&lt;br&gt;&lt;/span&gt;&lt;/div&gt;&lt;div style=&quot;text-align: left&quot;&gt;&lt;span&gt;&lt;span style=&quot;white-space: pre&quot;&gt;&#9;&lt;/span&gt;+ id Document Type&lt;br&gt;&lt;/span&gt;&lt;/div&gt;&lt;div style=&quot;text-align: left&quot;&gt;&lt;span&gt;&lt;span style=&quot;white-space: pre&quot;&gt;&#9;&lt;/span&gt;+ phone&lt;br&gt;&lt;/span&gt;&lt;/div&gt;" style="whiteSpace=wrap;html=1;aspect=fixed;fontSize=14;" parent="1" vertex="1">
                    <mxGeometry x="270" y="840" width="200" height="200" as="geometry"/>
                </mxCell>
                <mxCell id="n0ra2C8ssVpuhZFvP8Or-11" value="Branch" style="edgeStyle=orthogonalEdgeStyle;rounded=0;orthogonalLoop=1;jettySize=auto;html=1;exitX=0.5;exitY=1;exitDx=0;exitDy=0;entryX=0.5;entryY=0;entryDx=0;entryDy=0;fontSize=14;" parent="1" source="n0ra2C8ssVpuhZFvP8Or-9" target="n0ra2C8ssVpuhZFvP8Or-10" edge="1">
                    <mxGeometry relative="1" as="geometry"/>
                </mxCell>
                <mxCell id="n0ra2C8ssVpuhZFvP8Or-9" value="Document" style="ellipse;whiteSpace=wrap;html=1;fontSize=14;" parent="1" vertex="1">
                    <mxGeometry x="1070" y="280" width="120" height="80" as="geometry"/>
                </mxCell>
                <mxCell id="n0ra2C8ssVpuhZFvP8Or-14" value="File save for wrapped doc" style="edgeStyle=orthogonalEdgeStyle;rounded=0;orthogonalLoop=1;jettySize=auto;html=1;exitX=0.5;exitY=1;exitDx=0;exitDy=0;fontSize=14;entryX=0.5;entryY=0;entryDx=0;entryDy=0;" parent="1" source="n0ra2C8ssVpuhZFvP8Or-10" target="n0ra2C8ssVpuhZFvP8Or-12" edge="1">
                    <mxGeometry relative="1" as="geometry">
                        <mxPoint x="930" y="690" as="targetPoint"/>
                    </mxGeometry>
                </mxCell>
                <mxCell id="n0ra2C8ssVpuhZFvP8Or-15" value="File save for did doc" style="edgeStyle=orthogonalEdgeStyle;rounded=0;orthogonalLoop=1;jettySize=auto;html=1;exitX=0.5;exitY=1;exitDx=0;exitDy=0;fontSize=14;" parent="1" source="n0ra2C8ssVpuhZFvP8Or-10" target="n0ra2C8ssVpuhZFvP8Or-13" edge="1">
                    <mxGeometry relative="1" as="geometry"/>
                </mxCell>
                <mxCell id="n0ra2C8ssVpuhZFvP8Or-10" value="DOC_&amp;lt;companyName&amp;gt;" style="rounded=0;whiteSpace=wrap;html=1;fontSize=14;" parent="1" vertex="1">
                    <mxGeometry x="1030" y="480" width="200" height="80" as="geometry"/>
                </mxCell>
                <mxCell id="n0ra2C8ssVpuhZFvP8Or-18" value="Content" style="edgeStyle=orthogonalEdgeStyle;rounded=0;orthogonalLoop=1;jettySize=auto;html=1;exitX=0.5;exitY=1;exitDx=0;exitDy=0;entryX=0.5;entryY=0;entryDx=0;entryDy=0;fontSize=14;" parent="1" source="n0ra2C8ssVpuhZFvP8Or-12" target="n0ra2C8ssVpuhZFvP8Or-16" edge="1">
                    <mxGeometry relative="1" as="geometry"/>
                </mxCell>
                <mxCell id="n0ra2C8ssVpuhZFvP8Or-12" value="&amp;lt;file_name&amp;gt;.doc" style="rounded=0;whiteSpace=wrap;html=1;fontSize=14;" parent="1" vertex="1">
                    <mxGeometry x="830" y="680" width="200" height="60" as="geometry"/>
                </mxCell>
                <mxCell id="n0ra2C8ssVpuhZFvP8Or-19" value="Content" style="edgeStyle=orthogonalEdgeStyle;rounded=0;orthogonalLoop=1;jettySize=auto;html=1;exitX=0.5;exitY=1;exitDx=0;exitDy=0;entryX=0.5;entryY=0;entryDx=0;entryDy=0;fontSize=14;" parent="1" source="n0ra2C8ssVpuhZFvP8Or-13" target="n0ra2C8ssVpuhZFvP8Or-17" edge="1">
                    <mxGeometry relative="1" as="geometry"/>
                </mxCell>
                <mxCell id="n0ra2C8ssVpuhZFvP8Or-13" value="&amp;lt;file_name&amp;gt;.did" style="rounded=0;whiteSpace=wrap;html=1;fontSize=14;" parent="1" vertex="1">
                    <mxGeometry x="1231" y="680" width="200" height="60" as="geometry"/>
                </mxCell>
                <mxCell id="n0ra2C8ssVpuhZFvP8Or-16" value="&lt;div&gt;Wrapped document's content&lt;/div&gt;" style="whiteSpace=wrap;html=1;aspect=fixed;fontSize=14;align=center;" parent="1" vertex="1">
                    <mxGeometry x="830" y="840" width="200" height="200" as="geometry"/>
                </mxCell>
                <mxCell id="n0ra2C8ssVpuhZFvP8Or-17" value="&lt;div style=&quot;text-align: left&quot;&gt;&lt;span&gt;- controller: controller's public keys&lt;/span&gt;&lt;/div&gt;&lt;div style=&quot;text-align: left&quot;&gt;&lt;span&gt;- did: DID of the did doc&lt;/span&gt;&lt;/div&gt;&lt;div style=&quot;text-align: left&quot;&gt;&lt;span&gt;- owner: owner's PK&lt;/span&gt;&lt;/div&gt;&lt;div style=&quot;text-align: left&quot;&gt;&lt;span&gt;- holder: holder's PK&lt;/span&gt;&lt;/div&gt;&lt;div style=&quot;text-align: left&quot;&gt;&lt;span&gt;- url: document's url&lt;/span&gt;&lt;/div&gt;" style="whiteSpace=wrap;html=1;aspect=fixed;fontSize=14;" parent="1" vertex="1">
                    <mxGeometry x="1232" y="840" width="200" height="200" as="geometry"/>
                </mxCell>
            </root>
        </mxGraphModel>
    </diagram>
    <diagram id="Pk3ECYl4f2HpZRVpmxo6" name="Page-2">
        <mxGraphModel dx="1078" dy="775" grid="1" gridSize="10" guides="1" tooltips="1" connect="1" arrows="1" fold="1" page="1" pageScale="1" pageWidth="850" pageHeight="1100" math="0" shadow="0">
            <root>
                <mxCell id="n_yCi5sMjPFzBfHqQ4Dm-0"/>
                <mxCell id="n_yCi5sMjPFzBfHqQ4Dm-1" parent="n_yCi5sMjPFzBfHqQ4Dm-0"/>
                <mxCell id="3s7h6NpmvWORV6ARDINz-1" style="edgeStyle=none;html=1;exitX=0.5;exitY=1;exitDx=0;exitDy=0;" edge="1" parent="n_yCi5sMjPFzBfHqQ4Dm-1" source="3s7h6NpmvWORV6ARDINz-0">
                    <mxGeometry relative="1" as="geometry">
                        <mxPoint x="424.9999999999998" y="320" as="targetPoint"/>
                    </mxGeometry>
                </mxCell>
                <mxCell id="3s7h6NpmvWORV6ARDINz-0" value="&lt;span style=&quot;font-size: 14px&quot;&gt;Message Repository&lt;/span&gt;" style="rounded=1;whiteSpace=wrap;html=1;" vertex="1" parent="n_yCi5sMjPFzBfHqQ4Dm-1">
                    <mxGeometry x="330" y="160" width="190" height="80" as="geometry"/>
                </mxCell>
                <mxCell id="w6Hz87lFHYwVQTDlAqsR-1" value="Branch" style="edgeStyle=none;html=1;exitX=0.5;exitY=1;exitDx=0;exitDy=0;entryX=0.5;entryY=0;entryDx=0;entryDy=0;" edge="1" parent="n_yCi5sMjPFzBfHqQ4Dm-1" source="C1y-YIBYvqg6FEDj1XXx-0" target="w6Hz87lFHYwVQTDlAqsR-0">
                    <mxGeometry relative="1" as="geometry"/>
                </mxCell>
                <mxCell id="C1y-YIBYvqg6FEDj1XXx-0" value="Message (Notification)&lt;br&gt;Content" style="ellipse;whiteSpace=wrap;html=1;fontSize=14;" vertex="1" parent="n_yCi5sMjPFzBfHqQ4Dm-1">
                    <mxGeometry x="365" y="320" width="120" height="80" as="geometry"/>
                </mxCell>
                <mxCell id="upZwXRkOsAfaVo7mwQXt-1" value="File" style="edgeStyle=none;html=1;exitX=0.5;exitY=1;exitDx=0;exitDy=0;entryX=0.5;entryY=0;entryDx=0;entryDy=0;" edge="1" parent="n_yCi5sMjPFzBfHqQ4Dm-1" source="w6Hz87lFHYwVQTDlAqsR-0" target="upZwXRkOsAfaVo7mwQXt-0">
                    <mxGeometry relative="1" as="geometry"/>
                </mxCell>
                <mxCell id="w6Hz87lFHYwVQTDlAqsR-0" value="MSG_&amp;lt;first 5 letters&amp;gt;" style="rounded=0;whiteSpace=wrap;html=1;fontSize=14;" vertex="1" parent="n_yCi5sMjPFzBfHqQ4Dm-1">
                    <mxGeometry x="325" y="480" width="200" height="80" as="geometry"/>
                </mxCell>
                <mxCell id="mFBCc_Eiyb89WpPaoY1t-2" value="Content" style="edgeStyle=none;html=1;exitX=0.5;exitY=1;exitDx=0;exitDy=0;entryX=0.5;entryY=0;entryDx=0;entryDy=0;" edge="1" parent="n_yCi5sMjPFzBfHqQ4Dm-1" source="upZwXRkOsAfaVo7mwQXt-0" target="mFBCc_Eiyb89WpPaoY1t-0">
                    <mxGeometry relative="1" as="geometry"/>
                </mxCell>
                <mxCell id="upZwXRkOsAfaVo7mwQXt-0" value="&amp;lt;data.now()&amp;gt;_&amp;lt;sender_public_key&amp;gt;.msg" style="rounded=0;whiteSpace=wrap;html=1;fontSize=14;" vertex="1" parent="n_yCi5sMjPFzBfHqQ4Dm-1">
                    <mxGeometry x="285" y="660" width="275" height="60" as="geometry"/>
                </mxCell>
                <mxCell id="mFBCc_Eiyb89WpPaoY1t-0" value="&lt;div&gt;- receiver: receiver's DID&lt;/div&gt;&lt;div&gt;- sender: sender's DID&lt;/div&gt;&lt;div&gt;- content: message's content&lt;/div&gt;" style="whiteSpace=wrap;html=1;aspect=fixed;fontSize=14;align=left;" vertex="1" parent="n_yCi5sMjPFzBfHqQ4Dm-1">
                    <mxGeometry x="322.5" y="800" width="200" height="200" as="geometry"/>
                </mxCell>
            </root>
        </mxGraphModel>
    </diagram>
</mxfile>